<?xml version="1.0" encoding="UTF-8" standalone="no"?>
<svg width="690px" height="554px" viewBox="0 0 690 554" version="1.1" xmlns="http://www.w3.org/2000/svg" xmlns:xlink="http://www.w3.org/1999/xlink">
    <!-- Generator: Sketch 40.3 (33839) - http://www.bohemiancoding.com/sketch -->
    <title>backdrop-desktop</title>
    <desc>Created with Sketch.</desc>
    <defs></defs>
    <g id="backdrop-desktop" stroke="none" stroke-width="1" fill="none" fill-rule="evenodd">
        <g fill="#000000">
            <path d="M669.3,0.4 L20.4,0.4 C9.3,0.4 0.3,9.4 0.3,20.5 L0.3,412.6 L0.3,413.9 L0.3,456.1 C0.3,467.2 9.3,476.2 20.4,476.2 L265.3,476.2 C264.8,484.7 263.8,496.4 262.5,507.5 C259,537.5 256.3,540.1 255.8,540.4 C253.3,541.5 245.8,542.6 239.2,543.6 C227.3,545.4 225.7,545.8 225.7,547 L225.7,548.7 C225.7,549.1 225.7,549.5 227.9,549.8 L227.9,551.8 C227.9,553.1 265.8,553.3 300.2,553.3 C317.6,553.3 334,553.2 344.2,553.2 C354.4,553.2 370.8,553.3 388.2,553.3 C422.5,553.3 460.5,553.1 460.5,551.8 L460.5,549.8 C462.7,549.5 462.7,549.2 462.7,548.7 L462.7,547 C462.7,545.9 461.1,545.5 449.2,543.6 C442.6,542.6 435,541.4 432.6,540.4 C432.1,540.2 429.4,537.6 425.9,507.5 C424.6,496.4 423.6,484.7 423.1,476.2 L669.4,476.2 C680.5,476.2 689.5,467.2 689.5,456.1 L689.5,413.9 L689.5,412.6 L689.5,20.5 C689.4,9.4 680.4,0.4 669.3,0.4 L669.3,0.4 Z M459.4,551.1 C457.9,551.4 452.7,551.8 435.5,552 C424,552.2 408.5,552.2 388.1,552.2 L358.7,552.2 L344.1,552.2 L329.5,552.2 L300.1,552.2 C279.7,552.2 264.2,552.1 252.7,552 C235.5,551.8 230.3,551.4 228.8,551.1 L228.8,549.9 C231.9,550.2 238,550.4 249.9,550.6 C261.8,550.8 278.1,550.9 299.7,550.9 L329.5,550.9 L344.1,550.9 L358.7,550.9 L388.5,550.9 C410.1,550.9 426.4,550.8 438.3,550.6 C450.2,550.4 456.3,550.2 459.4,549.9 L459.4,551.1 L459.4,551.1 Z M424.5,507.7 C428.2,540 431,541.2 432,541.6 C434.6,542.7 441.9,543.9 449,544.9 C454,545.7 460.2,546.6 461.4,547.2 L461.4,548.3 C458.2,549.1 433.8,549.5 388.6,549.5 L358.8,549.5 L344.2,549.5 L329.6,549.5 L299.8,549.5 C254.6,549.5 230.1,549.1 227,548.3 L227,547.2 C228.2,546.6 234.4,545.7 239.4,544.9 C246.4,543.8 253.7,542.7 256.4,541.6 C257.3,541.2 260.1,540 263.9,507.7 C265.2,496.6 266.2,484.8 266.7,476.3 L421.7,476.3 C422.2,484.8 423.2,496.5 424.5,507.7 L424.5,507.7 Z M688.1,456.1 C688.1,466.5 679.7,474.9 669.3,474.9 L20.4,474.9 C10,474.9 1.6,466.5 1.6,456.1 L1.6,413.9 L688.1,413.9 L688.1,456.1 L688.1,456.1 Z M1.6,412.6 L1.6,20.5 C1.6,10.1 10,1.7 20.4,1.7 L669.3,1.7 C679.7,1.7 688.1,10.1 688.1,20.5 L688.1,412.6 L1.6,412.6 L1.6,412.6 Z" id="frame"></path>
            <path d="M659.9,27.9 L29.8,27.9 C28.7,27.9 27.8,28.8 27.8,29.9 L27.8,384.3 C27.8,385.4 28.7,386.3 29.8,386.3 L659.9,386.3 C661,386.3 661.9,385.4 661.9,384.3 L661.9,29.9 C661.9,28.8 661,27.9 659.9,27.9 L659.9,27.9 Z M659.9,384.3 L29.8,384.3 L29.8,29.9 L659.9,29.9 L659.9,384.3 L659.9,384.3 Z" id="screen"></path>
            <path d="M344.9,17.5 C346.4,17.5 347.5,16.3 347.5,14.9 C347.5,13.4 346.3,12.3 344.9,12.3 C343.5,12.3 342.3,13.5 342.3,14.9 C342.2,16.3 343.4,17.5 344.9,17.5 L344.9,17.5 Z M344.9,13.5 C345.6,13.5 346.2,14.1 346.2,14.8 C346.2,15.5 345.6,16.1 344.9,16.1 C344.2,16.1 343.6,15.5 343.6,14.8 C343.6,14.1 344.1,13.5 344.9,13.5 L344.9,13.5 Z" id="camera"></path>
        </g>
    </g>
</svg>