<?xml version="1.0" encoding="UTF-8" standalone="no"?>
<svg width="293px" height="414px" viewBox="0 0 293 414" version="1.1" xmlns="http://www.w3.org/2000/svg" xmlns:xlink="http://www.w3.org/1999/xlink">
    <!-- Generator: Sketch 40.3 (33839) - http://www.bohemiancoding.com/sketch -->
    <title>backdrop-tablet</title>
    <desc>Created with Sketch.</desc>
    <defs></defs>
    <g id="backdrop-tablet" stroke="none" stroke-width="1" fill="none" fill-rule="evenodd">
        <g fill="#000000">
            <path d="M287.3,5 C284,1.7 279.6,0 274.8,0 L16.9,0 C12.5,0 8.2,1.8 5,5.1 C1.8,8.4 0,12.7 0,17.3 L0,396.1 C0,405.6 8.3,413.4 18.6,413.4 L273.8,413.4 C278.8,413.4 283.4,411.6 286.8,408.4 C290.4,405.1 292.3,400.4 292.3,395.4 L292.3,17.3 C292.4,12.6 290.6,8.3 287.3,5 L287.3,5 Z M291.1,395.3 C291.1,405.1 283.2,412 273.8,412 L18.6,412 C9.1,412 1.3,404.9 1.3,396.1 L1.3,17.3 C1.3,8.5 8.4,1.4 16.9,1.4 L274.8,1.4 C283.9,1.4 291.1,8.5 291.1,17.3 L291.1,395.3 L291.1,395.3 Z" id="frame_outer"></path>
            <path d="M274.8,3.3 L17,3.3 C13.4,3.3 10,4.8 7.4,7.4 C4.8,10.1 3.3,13.6 3.3,17.3 L3.3,396.1 C3.3,403.8 10.2,410.1 18.6,410.1 L273.8,410.1 C277.9,410.1 281.8,408.6 284.6,406 C287.5,403.3 289.1,399.5 289.1,395.4 L289.1,17.3 C289.1,13.6 287.6,10.1 285,7.4 C282.3,4.7 278.7,3.3 274.8,3.3 L274.8,3.3 Z M287.8,395.3 C287.8,399.1 286.4,402.5 283.7,405 C281.1,407.4 277.6,408.8 273.8,408.8 L18.6,408.8 C10.9,408.8 4.6,403.1 4.6,396.1 L4.6,17.3 C4.6,13.9 5.9,10.7 8.3,8.3 C10.6,5.9 13.7,4.6 17,4.6 L274.9,4.6 C278.4,4.6 281.7,5.9 284.1,8.3 C286.5,10.7 287.8,13.8 287.8,17.2 L287.8,395.3 L287.8,395.3 Z" id="frame_inner"></path>
            <path d="M272.3,36.9 L20.3,36.9 C19.4,36.9 18.7,37.6 18.7,38.5 L18.7,374.5 C18.7,375.4 19.4,376.1 20.3,376.1 L272.3,376.1 C273.2,376.1 273.9,375.4 273.9,374.5 L273.9,38.5 C273.9,37.7 273.2,36.9 272.3,36.9 L272.3,36.9 Z M272.3,374.6 L20.3,374.6 L20.3,38.6 L272.3,38.6 L272.3,374.6 L272.3,374.6 Z" id="screen"></path>
            <path d="M146.1,22.6 C147.5,22.6 148.6,21.5 148.6,20.1 C148.6,18.7 147.5,17.6 146.1,17.6 C144.7,17.6 143.6,18.7 143.6,20.1 C143.6,21.5 144.7,22.6 146.1,22.6 L146.1,22.6 Z M146.1,18.7 C146.9,18.7 147.6,19.4 147.6,20.2 C147.6,21 146.9,21.7 146.1,21.7 C145.3,21.7 144.6,21 144.6,20.2 C144.6,19.3 145.3,18.7 146.1,18.7 L146.1,18.7 Z" id="camera"></path>
            <circle id="light_dot" cx="139" cy="20.2" r="1.3"></circle>
            <path d="M146.1,384.5 C140.7,384.5 136.3,388.9 136.3,394.3 L136.3,394.5 C136.4,399.8 140.8,404.1 146.1,404.1 C151.5,404.1 155.9,399.7 155.9,394.3 C155.9,388.9 151.5,384.5 146.1,384.5 L146.1,384.5 Z M146.1,402.9 C143.9,402.9 141.7,402 140.1,400.5 C138.5,398.9 137.6,396.8 137.5,394.6 L137.5,394.5 L137.5,394.4 C137.5,389.7 141.3,385.9 146,385.9 C150.7,385.9 154.5,389.7 154.5,394.4 C154.6,399.1 150.8,402.9 146.1,402.9 L146.1,402.9 Z" id="home_button_outer"></path>
            <path d="M148,390.5 L144.1,390.5 C143.2,390.5 142.4,391.2 142.4,392.2 L142.4,396.1 C142.4,397 143.1,397.8 144.1,397.8 L148,397.8 C148.9,397.8 149.7,397.1 149.7,396.1 L149.7,392.2 C149.6,391.2 148.9,390.5 148,390.5 L148,390.5 Z M148.3,396.1 C148.3,396.3 148.1,396.5 147.9,396.5 L144,396.5 C143.8,396.5 143.6,396.3 143.6,396.1 L143.6,392.2 C143.6,392 143.8,391.8 144,391.8 L147.9,391.8 C148.1,391.8 148.3,392 148.3,392.2 L148.3,396.1 L148.3,396.1 Z" id="home_button_inner"></path>
        </g>
    </g>
</svg>