<?xml version="1.0" encoding="UTF-8" standalone="no"?>
<svg width="128px" height="266px" viewBox="0 0 128 266" version="1.1" xmlns="http://www.w3.org/2000/svg" xmlns:xlink="http://www.w3.org/1999/xlink">
    <!-- Generator: Sketch 40.3 (33839) - http://www.bohemiancoding.com/sketch -->
    <title>backdrop-mobile</title>
    <desc>Created with Sketch.</desc>
    <defs></defs>
    <g id="backdrop-mobile" stroke="none" stroke-width="1" fill="none" fill-rule="evenodd">
        <g fill="#000000">
            <path d="M121.7,8.1 C118.1,4.5 113.3,2.5 108.2,2.5 L106.6,2.5 L106.6,1.8 L106.6,1.3 L106.2,1 L105.6,0.5 L105.3,0.3 L105,0.3 L86.5,0.3 L86.2,0.3 L86,0.5 L85.2,1 L84.7,1.3 L84.7,1.9 L84.7,2.6 L21.4,2.6 C16.3,2.6 11.5,4.6 7.9,8.2 C4.3,11.8 2.3,16.6 2.3,21.7 L2.3,38.3 L2,38.3 L1.6,38.3 L1.3,38.6 L0.8,39.1 L0.5,39.4 L0.5,39.8 L0.5,50.8 L0.5,51 L0.8,51.3 L1.3,51.8 L1.6,52.1 L2,52.1 L2.3,52.1 L2.3,62.9 L2,62.9 L1.6,62.9 L1.3,63.2 L0.8,63.7 L0.5,64 L0.5,64.4 L0.5,72.6 L0.5,73 L0.8,73.3 L1.3,73.8 L1.6,74.1 L2,74.1 L2.3,74.1 L2.3,84.8 L2,84.8 L1.6,84.8 L1.3,85.1 L0.8,85.6 L0.5,85.9 L0.5,86.3 L0.5,94.5 L0.5,94.9 L0.8,95.2 L1.3,95.7 L1.6,96 L2,96 L2.3,96 L2.3,246 C2.3,251.1 4.3,255.9 7.9,259.5 C11.5,263.1 16.3,265.1 21.4,265.1 L108.3,265.1 C113.4,265.1 118.2,263.1 121.8,259.5 C125.4,255.9 127.4,251.1 127.4,246 L127.4,21.6 C127.3,16.5 125.3,11.7 121.7,8.1 L121.7,8.1 Z M85.6,1.9 L86.5,1.4 L105,1.4 L105.6,1.9 L105.6,2.6 L85.6,2.6 L85.6,1.9 L85.6,1.9 Z M8.8,9 C12.2,5.7 16.6,3.8 21.3,3.8 L108.2,3.8 C112.9,3.8 117.4,5.6 120.7,9 C124,12.4 125.9,16.8 125.9,21.5 L125.9,25.6 L124.6,25.6 L124.6,21.5 C124.6,12.4 117.2,5.1 108.2,5.1 L21.3,5.1 C12.2,5.1 4.9,12.4 4.9,21.5 L4.9,25.6 L3.6,25.6 L3.6,21.5 C3.6,16.8 5.5,12.4 8.8,9 L8.8,9 Z M126,27.7 L126,240.2 L124.7,240.2 L124.7,27.7 L126,27.7 L126,27.7 Z M123.4,21.6 L123.4,246 C123.4,254.3 116.6,261.1 108.3,261.1 L21.4,261.1 C13.1,261.1 6.3,254.3 6.3,246 L6.3,21.6 C6.3,13.3 13.1,6.5 21.4,6.5 L108.3,6.5 C116.6,6.5 123.4,13.2 123.4,21.6 L123.4,21.6 Z M3.6,95.9 L3.6,94.9 L3.6,85.7 L3.6,84.7 L3.6,74.1 L3.6,73.1 L3.6,63.9 L3.6,62.9 L3.6,52.1 L3.6,51.1 L3.6,39.1 L3.6,38.1 L3.6,27.7 L4.9,27.7 L4.9,240.2 L3.6,240.2 L3.6,95.9 L3.6,95.9 Z M2,51.1 L1.5,50.6 L1.5,39.6 C1.6,39.5 1.8,39.3 2,39.1 L2.3,39.1 L2.3,51.1 L2,51.1 L2,51.1 Z M2,73.1 L1.5,72.6 L1.5,64.4 C1.6,64.3 1.8,64.1 2,63.9 L2.3,63.9 L2.3,73.1 L2,73.1 L2,73.1 Z M2,94.9 L1.5,94.4 L1.5,86.2 C1.6,86.1 1.8,85.9 2,85.7 L2.3,85.7 L2.3,94.9 L2,94.9 L2,94.9 Z M120.8,258.6 C117.4,261.9 113,263.8 108.3,263.8 L21.4,263.8 C16.7,263.8 12.2,262 8.9,258.6 C5.5,255.3 3.7,250.8 3.7,246.1 L3.7,242.2 L5,242.2 L5,246.1 C5,255.2 12.4,262.5 21.4,262.5 L108.3,262.5 C117.4,262.5 124.7,255.2 124.7,246.1 L124.7,242.2 L126,242.2 L126,246.1 C126,250.8 124.2,255.2 120.8,258.6 L120.8,258.6 Z" id="frame"></path>
            <path d="M55.5,28.3 L73.5,28.3 C74.9,28.3 76,27.2 76,25.8 C76,24.4 74.9,23.3 73.5,23.3 L55.5,23.3 C54.1,23.3 53,24.4 53,25.8 C53,27.2 54.1,28.3 55.5,28.3 L55.5,28.3 Z M55.5,24.7 L73.5,24.7 C74.1,24.7 74.6,25.2 74.6,25.8 C74.6,26.4 74.1,26.9 73.5,26.9 L55.5,26.9 C54.9,26.9 54.4,26.4 54.4,25.8 C54.3,25.2 54.8,24.7 55.5,24.7 L55.5,24.7 Z" id="speaker"></path>
            <path d="M117.1,39.3 L12.1,39.3 C11.4,39.3 10.8,39.9 10.8,40.6 L10.8,227 C10.8,227.7 11.4,228.3 12.1,228.3 L117.1,228.3 C117.8,228.3 118.4,227.7 118.4,227 L118.4,40.6 C118.5,39.9 117.9,39.3 117.1,39.3 L117.1,39.3 Z M117.1,227 L12.1,227 L12.1,40.6 L117.1,40.6 L117.1,227 L117.1,227 Z" id="screen"></path>
            <path d="M64.7,234.2 C58.6,234.2 53.6,239.2 53.6,245.3 C53.6,251.4 58.6,256.4 64.7,256.4 C70.8,256.4 75.8,251.4 75.8,245.3 C75.8,239.2 70.8,234.2 64.7,234.2 L64.7,234.2 Z M64.7,255.1 C59.3,255.1 54.9,250.7 54.9,245.3 C54.9,239.9 59.3,235.5 64.7,235.5 C70.1,235.5 74.5,239.9 74.5,245.3 C74.5,250.7 70.1,255.1 64.7,255.1 L64.7,255.1 Z" id="home_button"></path>
            <path d="M64.6,18.7 C66.1,18.7 67.4,17.4 67.4,15.9 C67.4,14.4 66.1,13.1 64.6,13.1 C63.1,13.1 61.8,14.4 61.8,15.9 C61.9,17.5 63.1,18.7 64.6,18.7 L64.6,18.7 Z M64.6,14.1 C65.6,14.1 66.4,14.9 66.4,15.9 C66.4,16.9 65.6,17.7 64.6,17.7 C63.6,17.7 62.8,16.9 62.8,15.9 C62.8,14.9 63.6,14.1 64.6,14.1 L64.6,14.1 Z" id="camera_outer"></path>
            <circle id="camera_inner" cx="64.6" cy="15.9" r="1"></circle>
        </g>
    </g>
</svg>